<svg width="20" height="20" viewBox="0 0 20 20" fill="none" xmlns="http://www.w3.org/2000/svg">
<circle cx="10" cy="10" r="9.6" stroke="#383838" stroke-width="0.8"/>
<path d="M11.273 15.3452H8.72751C8.58731 15.3452 8.47297 15.2309 8.47297 15.0907V11.527H4.90933C4.76913 11.527 4.65479 11.4127 4.65479 11.2725V8.72702C4.65479 8.58682 4.76913 8.47248 4.90933 8.47248H8.47297V4.90884C8.47297 4.76864 8.58731 4.6543 8.72751 4.6543H11.273C11.4132 4.6543 11.5275 4.76864 11.5275 4.90884V8.47248H15.0911C15.2314 8.47248 15.3457 8.58683 15.3457 8.72702V11.2725C15.3457 11.4127 15.2313 11.527 15.0911 11.527H11.5275V15.0907C11.5275 15.2309 11.4132 15.3452 11.273 15.3452ZM8.98206 14.8361H11.0184V11.2725C11.0184 11.1323 11.1328 11.0179 11.273 11.0179H14.8366V8.98157H11.273C11.1328 8.98157 11.0184 8.86722 11.0184 8.72702V5.16339H8.98206V8.72702C8.98206 8.86723 8.86771 8.98157 8.72751 8.98157H5.16388V11.0179H8.72751C8.86772 11.0179 8.98206 11.1323 8.98206 11.2725V14.8361Z" fill="#383838"/>
</svg>
