<svg width="38" height="38" viewBox="0 0 38 38" fill="none" xmlns="http://www.w3.org/2000/svg">
<path d="M32.6487 13.3788C30.9862 6.06384 24.6054 2.77051 19.0004 2.77051C19.0004 2.77051 19.0004 2.77051 18.9846 2.77051C13.3954 2.77051 6.99873 6.04801 5.33623 13.363C3.48373 21.533 8.48706 28.4522 13.0154 32.8063C14.6937 34.4213 16.8471 35.2288 19.0004 35.2288C21.1537 35.2288 23.3071 34.4213 24.9696 32.8063C29.4979 28.4522 34.5012 21.5488 32.6487 13.3788Z" fill="#00B99C"/>
<path d="M19.0002 21.3119C21.7547 21.3119 23.9877 19.0789 23.9877 16.3244C23.9877 13.5699 21.7547 11.3369 19.0002 11.3369C16.2457 11.3369 14.0127 13.5699 14.0127 16.3244C14.0127 19.0789 16.2457 21.3119 19.0002 21.3119Z" fill="white"/>
</svg>
