<svg width="20" height="20" viewBox="0 0 20 20" fill="none" xmlns="http://www.w3.org/2000/svg">
<path d="M12.5002 18.9587H7.50016C3.82516 18.9587 2.7085 17.842 2.7085 14.167V5.83366C2.7085 2.15866 3.82516 1.04199 7.50016 1.04199H12.5002C16.1752 1.04199 17.2918 2.15866 17.2918 5.83366V14.167C17.2918 17.842 16.1752 18.9587 12.5002 18.9587ZM7.50016 2.29199C4.51683 2.29199 3.9585 2.85866 3.9585 5.83366V14.167C3.9585 17.142 4.51683 17.7087 7.50016 17.7087H12.5002C15.4835 17.7087 16.0418 17.142 16.0418 14.167V5.83366C16.0418 2.85866 15.4835 2.29199 12.5002 2.29199H7.50016Z" fill="#383838"/>
<path d="M11.6668 5.20801H8.3335C7.99183 5.20801 7.7085 4.92467 7.7085 4.58301C7.7085 4.24134 7.99183 3.95801 8.3335 3.95801H11.6668C12.0085 3.95801 12.2918 4.24134 12.2918 4.58301C12.2918 4.92467 12.0085 5.20801 11.6668 5.20801Z" fill="#383838"/>
<path d="M10.0002 16.5501C8.94183 16.5501 8.0835 15.6918 8.0835 14.6335C8.0835 13.5751 8.94183 12.7168 10.0002 12.7168C11.0585 12.7168 11.9168 13.5751 11.9168 14.6335C11.9168 15.6918 11.0585 16.5501 10.0002 16.5501ZM10.0002 13.9585C9.6335 13.9585 9.3335 14.2585 9.3335 14.6251C9.3335 14.9918 9.6335 15.2918 10.0002 15.2918C10.3668 15.2918 10.6668 14.9918 10.6668 14.6251C10.6668 14.2585 10.3668 13.9585 10.0002 13.9585Z" fill="#383838"/>
</svg>
