<svg width="62" height="62" viewBox="0 0 62 62" fill="none" xmlns="http://www.w3.org/2000/svg">
<path d="M50.375 60.0625C54.3877 60.0625 57.6406 56.8096 57.6406 52.7969C57.6406 48.7842 54.3877 45.5312 50.375 45.5312C46.3623 45.5312 43.1094 48.7842 43.1094 52.7969C43.1094 56.8096 46.3623 60.0625 50.375 60.0625Z" fill="#3E4347"/>
<path d="M50.3751 56.2844C52.4082 56.2844 54.0563 54.6362 54.0563 52.6031C54.0563 50.57 52.4082 48.9219 50.3751 48.9219C48.342 48.9219 46.6938 50.57 46.6938 52.6031C46.6938 54.6362 48.342 56.2844 50.3751 56.2844Z" fill="#94989B"/>
<path d="M10.1719 60.0625C14.1846 60.0625 17.4375 56.8096 17.4375 52.7969C17.4375 48.7842 14.1846 45.5312 10.1719 45.5312C6.15918 45.5312 2.90625 48.7842 2.90625 52.7969C2.90625 56.8096 6.15918 60.0625 10.1719 60.0625Z" fill="#3E4347"/>
<path d="M10.172 56.4777C12.2051 56.4777 13.8532 54.8296 13.8532 52.7965C13.8532 50.7634 12.2051 49.1152 10.172 49.1152C8.13887 49.1152 6.49072 50.7634 6.49072 52.7965C6.49072 54.8296 8.13887 56.4777 10.172 56.4777Z" fill="#94989B"/>
<path d="M51.3439 35.7469H30.6127C30.6127 35.7469 35.747 37.975 35.747 42.7219C35.747 45.3375 33.422 47.3719 30.6127 47.3719H21.2158C19.5689 47.3719 18.2127 42.2375 18.2127 35.8438C18.2127 29.2563 20.8283 25.7688 20.8283 25.7688V23.7344C20.8283 23.0563 20.4408 22.475 19.9564 22.475C19.2783 22.3781 18.5033 21.9906 18.3095 21.1187C17.8252 19.375 16.6627 19.375 15.8877 19.375H14.5314V25.7688H17.8252C17.8252 25.7688 10.172 35.8438 10.172 40.8813C10.172 41.6563 10.947 42.8188 10.947 42.8188H10.172C6.87829 42.8188 3.58454 44.6594 2.03454 47.4688C1.25954 48.825 7.75017 48.05 10.172 49.3094C12.2064 50.375 13.0783 52.1188 16.4689 52.1188H19.6658C20.9252 52.1188 21.4095 53.0875 22.7658 53.0875H60.0627C60.0627 42.1406 51.3439 35.7469 51.3439 35.7469Z" fill="#00B99C"/>
<path d="M13.5625 19.375H14.4344V25.7688H13.5625V19.375Z" fill="#D0D0D0"/>
<path d="M12.6904 22.5721C12.6904 23.8314 13.0779 24.8002 13.5623 24.8002V20.2471C13.0779 20.2471 12.6904 21.3127 12.6904 22.5721Z" fill="#D0D0D0"/>
<path d="M13.5625 19.375V25.7688H14.4344C14.4344 25.7688 13.5625 22.5719 13.5625 19.375Z" fill="#94989B"/>
<path d="M13.5623 24.8004V23.6379C12.8842 23.3473 12.6904 22.5723 12.6904 22.5723C12.6904 23.8316 13.0779 24.8004 13.5623 24.8004Z" fill="#94989B"/>
<path d="M20.1499 24.7998C20.6849 24.7998 21.1187 24.3661 21.1187 23.8311C21.1187 23.296 20.6849 22.8623 20.1499 22.8623C19.6149 22.8623 19.1812 23.296 19.1812 23.8311C19.1812 24.3661 19.6149 24.7998 20.1499 24.7998Z" fill="#3E4347"/>
<path d="M22.572 24.2182L22.2813 23.9276L20.3438 23.1526C19.9563 23.0557 19.5688 23.2495 19.472 23.637C19.3751 24.0245 19.5688 24.412 19.9563 24.5089L21.6032 25.187C21.797 25.2839 21.9907 25.2839 22.1845 25.187C22.572 24.9932 22.6688 24.6057 22.572 24.2182Z" fill="#3E4347"/>
<path d="M21.8938 25.1879C22.2148 25.1879 22.475 24.9277 22.475 24.6066C22.475 24.2856 22.2148 24.0254 21.8938 24.0254C21.5727 24.0254 21.3125 24.2856 21.3125 24.6066C21.3125 24.9277 21.5727 25.1879 21.8938 25.1879Z" fill="#94989B"/>
<path d="M54.0562 30.3214C54.0562 29.3527 53.2813 28.4808 52.2156 28.5777L30.4187 29.3527C29.45 29.3527 28.5781 30.2246 28.5781 31.2902V33.9058C28.5781 34.8746 29.3531 35.7464 30.4187 35.7464H52.2156C53.1844 35.7464 54.0562 34.8746 54.0562 33.9058V30.3214Z" fill="#3E4347"/>
<path d="M29.5469 31.0971L53.0875 30.3221C53.0875 29.8377 52.7 29.4502 52.2156 29.4502L30.4187 30.2252C29.9344 30.2252 29.5469 30.6127 29.5469 31.0971Z" fill="#94989B"/>
<path d="M55.9937 42.5282C55.025 41.7532 53.9594 41.0751 52.8937 40.5907C51.8281 40.0095 50.6656 39.5251 49.5031 39.2345C48.3406 38.9439 47.1781 38.6532 45.9188 38.5564C44.7563 38.4595 43.4969 38.5564 42.4313 38.847C40.2031 39.4282 38.2656 41.172 37.3937 43.4001C36.5219 45.6282 36.8125 48.147 37.6844 50.472C37.0063 49.4064 36.6187 48.2439 36.425 46.9845C36.2312 45.7251 36.3281 44.4657 36.7156 43.2064C37.1031 41.947 37.7813 40.7845 38.75 39.9126C39.7188 39.0407 40.8813 38.3626 42.1406 38.072C43.4 37.6845 44.7563 37.6845 45.9188 37.7814C47.1781 37.8782 48.4375 38.1689 49.6 38.6532C52.1188 39.4282 54.3469 40.7845 55.9937 42.5282Z" fill="#057563"/>
<path d="M56.7688 43.7873C55.8 43.1091 54.8313 42.5279 53.7657 42.0435C52.7 41.5591 51.6344 41.1716 50.5688 40.881C49.5032 40.5904 48.3407 40.3966 47.1782 40.2998C46.0157 40.2029 44.95 40.2029 43.8844 40.4935C41.6563 40.881 39.7188 42.2373 38.75 44.1748C37.7813 46.2091 37.975 48.631 38.9438 50.7623C38.2657 49.7935 37.8782 48.631 37.6844 47.4685C37.4907 46.306 37.6844 45.0466 38.0719 43.8841C38.5563 42.7216 39.3313 41.7529 40.3 40.9779C41.2688 40.2029 42.4313 39.7185 43.5938 39.5248C44.7563 39.331 46.0157 39.331 47.1782 39.4279C48.3407 39.5248 49.5032 39.8154 50.6657 40.2029C52.9907 40.9779 55.025 42.1404 56.7688 43.7873Z" fill="#07917B"/>
<path d="M7.75 53.2812C8.01751 53.2812 8.23438 53.0644 8.23438 52.7969C8.23438 52.5294 8.01751 52.3125 7.75 52.3125C7.48249 52.3125 7.26562 52.5294 7.26562 52.7969C7.26562 53.0644 7.48249 53.2812 7.75 53.2812Z" fill="#D0D0D0"/>
<path d="M8.42822 55.0254C8.69574 55.0254 8.9126 54.8085 8.9126 54.541C8.9126 54.2735 8.69574 54.0566 8.42822 54.0566C8.16071 54.0566 7.94385 54.2735 7.94385 54.541C7.94385 54.8085 8.16071 55.0254 8.42822 55.0254Z" fill="#D0D0D0"/>
<path d="M10.1719 55.7031C10.4394 55.7031 10.6562 55.4863 10.6562 55.2188C10.6562 54.9512 10.4394 54.7344 10.1719 54.7344C9.90436 54.7344 9.6875 54.9512 9.6875 55.2188C9.6875 55.4863 9.90436 55.7031 10.1719 55.7031Z" fill="#D0D0D0"/>
<path d="M11.9155 55.0254C12.183 55.0254 12.3999 54.8085 12.3999 54.541C12.3999 54.2735 12.183 54.0566 11.9155 54.0566C11.648 54.0566 11.4312 54.2735 11.4312 54.541C11.4312 54.8085 11.648 55.0254 11.9155 55.0254Z" fill="#D0D0D0"/>
<path d="M12.5938 53.2812C12.8613 53.2812 13.0781 53.0644 13.0781 52.7969C13.0781 52.5294 12.8613 52.3125 12.5938 52.3125C12.3262 52.3125 12.1094 52.5294 12.1094 52.7969C12.1094 53.0644 12.3262 53.2812 12.5938 53.2812Z" fill="#D0D0D0"/>
<path d="M11.9155 51.5371C12.183 51.5371 12.3999 51.3202 12.3999 51.0527C12.3999 50.7852 12.183 50.5684 11.9155 50.5684C11.648 50.5684 11.4312 50.7852 11.4312 51.0527C11.4312 51.3202 11.648 51.5371 11.9155 51.5371Z" fill="#D0D0D0"/>
<path d="M10.1719 50.8594C10.4394 50.8594 10.6562 50.6425 10.6562 50.375C10.6562 50.1075 10.4394 49.8906 10.1719 49.8906C9.90436 49.8906 9.6875 50.1075 9.6875 50.375C9.6875 50.6425 9.90436 50.8594 10.1719 50.8594Z" fill="#D0D0D0"/>
<path d="M8.42822 51.5371C8.69574 51.5371 8.9126 51.3202 8.9126 51.0527C8.9126 50.7852 8.69574 50.5684 8.42822 50.5684C8.16071 50.5684 7.94385 50.7852 7.94385 51.0527C7.94385 51.3202 8.16071 51.5371 8.42822 51.5371Z" fill="#D0D0D0"/>
<path d="M18.6002 49.9873C18.1158 48.6311 17.4377 47.4686 16.5658 46.4998C15.5971 45.5311 14.4346 44.853 13.1752 44.4655C11.9158 44.078 10.5596 44.1748 9.3002 44.4655C8.04082 44.853 6.78145 45.4342 5.71582 46.403C6.49082 45.2405 7.65332 44.2717 9.10645 43.7873C10.4627 43.303 12.0127 43.2061 13.4658 43.5936C14.9189 43.9811 16.1783 44.853 17.1471 46.0155C18.0189 47.178 18.5033 48.5342 18.6002 49.9873Z" fill="#037664"/>
<path d="M10.1717 53.6686C10.6532 53.6686 11.0436 53.2782 11.0436 52.7967C11.0436 52.3152 10.6532 51.9248 10.1717 51.9248C9.69016 51.9248 9.2998 52.3152 9.2998 52.7967C9.2998 53.2782 9.69016 53.6686 10.1717 53.6686Z" fill="#D0D0D0"/>
<path d="M48.6309 54.8311C48.8984 54.8311 49.1152 54.6142 49.1152 54.3467C49.1152 54.0792 48.8984 53.8623 48.6309 53.8623C48.3633 53.8623 48.1465 54.0792 48.1465 54.3467C48.1465 54.6142 48.3633 54.8311 48.6309 54.8311Z" fill="#D0D0D0"/>
<path d="M50.375 55.5088C50.6425 55.5088 50.8594 55.2919 50.8594 55.0244C50.8594 54.7569 50.6425 54.54 50.375 54.54C50.1075 54.54 49.8906 54.7569 49.8906 55.0244C49.8906 55.2919 50.1075 55.5088 50.375 55.5088Z" fill="#D0D0D0"/>
<path d="M52.1187 54.8311C52.3862 54.8311 52.603 54.6142 52.603 54.3467C52.603 54.0792 52.3862 53.8623 52.1187 53.8623C51.8511 53.8623 51.6343 54.0792 51.6343 54.3467C51.6343 54.6142 51.8511 54.8311 52.1187 54.8311Z" fill="#D0D0D0"/>
<path d="M49.5996 52.9902C49.7934 53.2809 50.084 53.4746 50.3746 53.4746C50.6652 53.4746 51.0527 53.2809 51.1496 52.9902H49.5996Z" fill="#D0D0D0"/>
</svg>
