<svg width="62" height="62" viewBox="0 0 62 62" fill="none" xmlns="http://www.w3.org/2000/svg">
<path d="M31.0001 3.72021C22.7968 3.72021 16.1201 10.3969 16.1201 18.6002C16.1201 26.3828 22.1393 32.7856 29.7601 33.4221V57.0402C29.7508 57.6953 30.3449 58.2996 31.0001 58.2996C31.6553 58.2996 32.2494 57.6953 32.2401 57.0402V33.4221C39.8609 32.7856 45.8801 26.3828 45.8801 18.6002C45.8801 10.3969 39.2034 3.72021 31.0001 3.72021ZM31.0001 6.20021C37.8631 6.20021 43.4001 11.7372 43.4001 18.6002C43.4001 25.4632 37.8631 31.0002 31.0001 31.0002C24.1371 31.0002 18.6001 25.4632 18.6001 18.6002C18.6001 11.7372 24.1371 6.20021 31.0001 6.20021Z" fill="#383838"/>
</svg>
