<svg width="56" height="49" viewBox="0 0 56 49" fill="none" xmlns="http://www.w3.org/2000/svg">
<path d="M29.2639 12.0077L29.3562 12.0352L29.361 12.0298C29.7251 12.0877 30.0829 11.8676 30.1899 11.5063C31.1383 8.31971 34.1263 6.09343 37.4551 6.09343C37.8662 6.09343 38.1996 5.76001 38.1996 5.34891C38.1996 4.9378 37.8662 4.60439 37.4551 4.60439C33.3359 4.60439 29.8744 7.34699 28.763 11.0819C28.6455 11.4761 28.8701 11.8903 29.2639 12.0077Z" fill="#00B99C" stroke="#F9FFF9" stroke-width="0.3"/>
<path d="M45.7779 34.4802H42.2109C41.8826 34.4802 41.6164 34.2139 41.6164 33.8857C41.6164 33.5574 41.8826 33.2911 42.2109 33.2911H45.7779C50.6949 33.2911 54.6956 29.2905 54.6956 24.3735C54.6956 19.4564 50.6949 15.4558 45.7779 15.4558H45.6921C45.5197 15.4558 45.3558 15.381 45.2429 15.2507C45.1299 15.1203 45.0789 14.9474 45.1036 14.7767C45.1567 14.4064 45.1834 14.0344 45.1834 13.6722C45.1834 9.41086 41.7161 5.94351 37.4547 5.94351C35.7969 5.94351 34.2159 6.46159 32.8824 7.4421C32.5894 7.6574 32.1732 7.56185 32.0038 7.23954C28.2274 0.0485042 18.3638 -0.917178 13.25 5.33839C11.0958 7.97377 10.2494 11.402 10.9276 14.7432C11.0024 15.1122 10.72 15.4562 10.345 15.4562H10.1068C5.18977 15.4562 1.18908 19.4569 1.18908 24.3739C1.18908 29.2909 5.18977 33.2916 10.1068 33.2916H13.6738C14.0021 33.2916 14.2683 33.5579 14.2683 33.8861C14.2683 34.2144 14.0021 34.4806 13.6738 34.4806H10.1068C4.53402 34.4806 0 29.9466 0 24.3739C0 18.9574 4.28301 14.5223 9.64008 14.2777C9.13687 10.8113 10.0991 7.31468 12.3294 4.58592C17.8044 -2.11211 28.2969 -1.36135 32.7323 6.10744C34.1473 5.22033 35.7664 4.75496 37.4545 4.75496C42.6174 4.75496 46.7085 9.14929 46.3506 14.2833C51.6583 14.581 55.8844 18.9927 55.8844 24.3734C55.8844 29.9466 51.3504 34.4802 45.7777 34.4802L45.7779 34.4802Z" fill="#00B99C"/>
<path d="M12.8495 33.55C12.8495 41.8284 19.5843 48.563 27.8625 48.563C36.1409 48.563 42.8755 41.8283 42.8755 33.55C42.8755 25.2716 36.1409 18.537 27.8625 18.537C19.5841 18.537 12.8495 25.2718 12.8495 33.55ZM14.3388 33.55C14.3388 26.0933 20.4057 20.0263 27.8625 20.0263C35.3192 20.0263 41.3862 26.0932 41.3862 33.55C41.3862 41.0067 35.3192 47.0737 27.8625 47.0737C20.4058 47.0737 14.3388 41.0068 14.3388 33.55Z" fill="#00B99C" stroke="#F9FFF9" stroke-width="0.3"/>
<path d="M28.1345 39.9686C27.8942 39.9686 27.6992 39.7737 27.6992 39.5334V28.2167C27.6992 27.9764 27.8941 27.7815 28.1345 27.7815C28.3748 27.7815 28.5697 27.9764 28.5697 28.2167V39.5334C28.5697 39.774 28.3748 39.9686 28.1345 39.9686Z" fill="#00B99C"/>
<path d="M31.6166 32.1353C31.5053 32.1353 31.3937 32.0927 31.3088 32.0078L28.1346 28.8336L24.9604 32.0078C24.7906 32.1779 24.5149 32.1779 24.3448 32.0078C24.1748 31.8377 24.1748 31.5623 24.3448 31.3922L27.8268 27.9103C27.9966 27.7402 28.2723 27.7402 28.4424 27.9103L31.9244 31.3922C32.0944 31.5623 32.0944 31.8377 31.9244 32.0078C31.8395 32.093 31.7279 32.1353 31.6166 32.1353H31.6166Z" fill="#00B99C"/>
</svg>
